<?xml version="1.0" standalone="no"?>
<!DOCTYPE svg PUBLIC "-//W3C//DTD SVG 20010904//EN"
 "http://www.w3.org/TR/2001/REC-SVG-20010904/DTD/svg10.dtd">
<svg version="1.0" xmlns="http://www.w3.org/2000/svg"
 width="700.000000pt" height="700.000000pt" viewBox="0 0 700.000000 700.000000"
 preserveAspectRatio="xMidYMid meet">
<metadata>
Created by potrace 1.14, written by Peter Selinger 2001-2017
</metadata>
<g transform="translate(0.000000,700.000000) scale(0.100000,-0.100000)"
fill="#000000" stroke="none">
<path d="M2380 6531 c-18 -35 -37 -135 -33 -179 2 -24 19 -105 39 -180 62
-237 43 -334 -88 -457 -69 -66 -82 -74 -345 -207 -152 -77 -226 -120 -235
-136 -18 -34 -13 -104 9 -120 20 -14 40 -12 168 19 171 40 233 70 455 222 63
43 142 97 175 119 54 37 63 48 90 112 43 106 65 182 66 234 1 26 6 49 10 52 9
6 -59 277 -91 363 -26 69 -59 111 -119 149 -52 33 -86 36 -101 9z"/>
<path d="M3052 6357 c-65 -195 -67 -208 -67 -367 0 -104 4 -137 24 -198 43
-133 48 -138 501 -509 66 -54 149 -111 195 -134 73 -37 85 -40 138 -35 32 3
61 7 66 10 4 3 4 29 1 59 -11 101 -86 175 -520 510 -78 60 -100 83 -125 132
-28 55 -30 66 -31 182 -1 68 5 161 12 206 32 197 3 277 -111 301 l-30 6 -53
-163z"/>
<path d="M4400 5874 c-77 -16 -122 -39 -209 -107 -62 -49 -85 -85 -106 -162
-37 -137 -40 -247 -10 -351 25 -86 92 -216 140 -271 43 -50 123 -100 173 -110
88 -16 135 -21 202 -19 62 2 88 8 150 38 88 42 148 91 183 150 31 54 101 341
93 383 -3 16 -9 50 -12 75 -29 219 -128 341 -295 365 -24 3 -57 8 -74 11 -68
12 -174 11 -235 -2z m105 -238 c28 -3 75 -13 105 -22 141 -41 173 -103 145
-284 -25 -164 -30 -176 -78 -208 -37 -24 -51 -27 -127 -27 -68 0 -94 4 -130
22 -78 39 -121 130 -121 258 -1 126 20 204 64 238 29 22 71 37 87 31 3 -1 28
-4 55 -8z"/>
<path d="M2354 5242 c-52 -9 -120 -37 -141 -60 -42 -45 -25 -115 36 -147 20
-10 236 -55 265 -55 6 0 -16 -182 -25 -210 -14 -42 -54 -75 -173 -144 -79 -46
-127 -96 -158 -164 -54 -121 -105 -311 -123 -457 -3 -28 -9 -63 -12 -79 -11
-59 -10 -344 2 -436 35 -270 133 -471 315 -649 102 -101 154 -131 268 -160
214 -55 354 -61 481 -20 124 40 214 98 359 234 98 92 122 130 157 250 41 143
63 248 85 410 19 133 21 161 25 330 6 227 -17 349 -98 510 -80 161 -167 244
-293 281 -33 9 -76 25 -96 35 -37 19 -38 21 -38 75 0 78 18 145 46 171 13 12
70 36 126 54 153 48 185 77 153 138 -39 76 -95 86 -475 90 -614 6 -667 6 -686
3z m536 -270 c47 -23 70 -70 64 -136 -5 -68 -23 -82 -108 -85 l-66 -2 0 120 0
121 38 0 c20 -1 53 -9 72 -18z m44 -473 c4 -4 12 -77 21 -189 13 -153 20 -222
31 -315 14 -114 86 -252 165 -319 24 -20 80 -58 124 -84 126 -76 153 -95 164
-119 8 -18 0 -52 -42 -178 -28 -85 -55 -155 -58 -155 -4 0 -62 66 -130 147
-68 82 -133 159 -144 172 -11 13 -38 35 -60 50 -34 22 -50 26 -115 25 -113 0
-109 4 -300 -249 -63 -82 -125 -165 -139 -182 l-26 -33 -33 93 c-19 50 -53
146 -76 212 l-42 120 81 34 c169 71 254 122 309 188 40 47 46 68 61 208 3 33
8 76 10 95 3 19 7 58 10 85 4 28 8 61 10 75 5 34 36 270 38 295 1 11 5 22 9
25 7 6 127 4 132 -1z m346 -65 c97 -63 125 -107 140 -216 11 -88 16 -134 35
-371 l5 -69 -32 7 c-147 32 -199 142 -214 453 -3 64 -7 141 -8 170 -4 75 -2
76 74 26z m-795 -266 c0 -156 -4 -289 -9 -296 -7 -12 -99 -63 -111 -62 -3 1
-19 -7 -36 -17 -35 -21 -43 -14 -53 47 -17 110 38 417 90 502 18 27 106 108
119 108 0 0 1 -127 0 -282z m531 -1039 c71 -83 130 -154 132 -158 5 -14 -117
-72 -181 -85 -96 -20 -249 -4 -305 32 -25 17 35 130 122 227 20 22 51 61 69
87 17 26 32 48 33 48 1 0 59 -68 130 -151z"/>
<path d="M3897 4515 c-43 -12 -85 -29 -94 -37 -22 -22 -19 -104 4 -130 34 -38
61 -44 238 -53 204 -11 236 -13 240 -17 2 -2 5 -125 6 -274 1 -214 -1 -276
-12 -297 -14 -26 -74 -77 -92 -77 -5 0 -32 -16 -61 -35 -59 -39 -70 -60 -106
-200 -22 -85 -31 -274 -17 -350 32 -167 74 -228 219 -317 84 -52 146 -73 266
-92 61 -10 125 -27 159 -43 109 -52 201 -174 218 -286 3 -27 8 -56 10 -65 1
-10 6 -46 10 -82 4 -36 9 -78 11 -95 22 -195 22 -843 0 -1000 -3 -16 -8 -59
-11 -95 -4 -36 -9 -74 -11 -85 -3 -11 -5 -69 -4 -128 0 -114 28 -259 54 -285
26 -26 147 -7 165 26 5 9 12 53 16 96 4 43 8 87 10 97 2 10 7 58 10 106 4 48
9 96 11 106 26 138 26 762 0 1022 -2 17 -6 65 -10 107 -4 42 -8 85 -10 95 -2
10 -7 48 -10 85 -4 37 -9 77 -11 90 -2 13 -6 48 -10 79 -12 119 -65 249 -128
319 -38 42 -103 89 -159 115 -44 20 -198 62 -296 81 -89 17 -182 63 -220 109
-41 50 -53 101 -51 208 4 193 56 250 239 262 90 6 134 6 260 1 112 -5 252 48
353 135 50 43 73 78 82 125 76 405 65 540 -55 647 -74 65 -243 127 -387 142
-32 3 -213 8 -403 10 -336 3 -347 3 -423 -20z m841 -251 c98 -17 200 -77 228
-133 39 -80 19 -228 -42 -308 -71 -93 -112 -110 -282 -114 l-87 -2 -3 287 -2
287 77 -5 c43 -3 93 -8 111 -12z"/>
<path d="M2077 2474 c-84 -16 -172 -55 -187 -84 -28 -51 37 -149 112 -168 24
-6 122 -14 218 -17 199 -6 239 -11 260 -31 17 -17 18 -56 6 -264 -4 -74 -9
-173 -11 -220 -7 -148 -22 -362 -30 -450 -3 -25 -8 -81 -11 -125 -3 -44 -7
-94 -9 -111 -15 -121 -21 -321 -14 -439 5 -91 29 -114 106 -102 68 11 95 56
108 177 3 30 8 66 10 80 2 14 7 75 10 135 3 61 8 133 10 160 2 28 6 93 10 145
3 52 8 120 10 150 2 30 7 96 10 145 3 50 8 113 10 140 2 28 7 95 10 150 4 55
8 120 10 145 2 25 7 90 10 145 4 55 8 111 10 125 l2 25 149 3 150 2 1 -107 c3
-321 14 -909 19 -983 5 -83 6 -98 19 -210 20 -172 76 -413 102 -442 19 -21 79
-24 118 -6 51 23 55 46 50 280 -3 117 -7 247 -9 288 -2 41 -7 131 -11 200 -3
69 -8 152 -10 185 -3 67 -14 271 -20 385 -2 41 -7 140 -10 219 -4 79 -8 153
-10 162 -5 24 0 26 60 33 28 3 66 7 85 10 19 3 96 15 170 26 221 32 217 31
226 78 17 88 -36 146 -146 158 -30 3 -59 9 -65 12 -5 4 -336 7 -735 8 -553 1
-741 -2 -793 -12z"/>
</g>
</svg>
